<?xml version="1.0" standalone="no"?>
<!DOCTYPE svg PUBLIC "-//W3C//DTD SVG 20010904//EN"
 "http://www.w3.org/TR/2001/REC-SVG-20010904/DTD/svg10.dtd">
<svg version="1.0" xmlns="http://www.w3.org/2000/svg"
 width="256.000000pt" height="256.000000pt" viewBox="0 0 256.000000 256.000000"
 preserveAspectRatio="xMidYMid meet">

<g transform="translate(0.000000,256.000000) scale(0.100000,-0.100000)"
fill="#000000" stroke="none">
<path d="M436 1984 c-36 -11 -65 -31 -107 -73 -90 -91 -89 -81 -89 -631 0
-550 -1 -540 89 -631 66 -65 125 -89 224 -89 51 0 62 4 88 29 37 37 37 65 0
102 -25 25 -37 29 -83 29 -66 0 -115 25 -140 71 -17 31 -18 67 -18 489 0 509
-1 503 71 542 31 17 70 18 567 18 467 0 538 -2 567 -16 58 -27 69 -55 75 -186
5 -112 6 -118 34 -147 34 -36 87 -56 122 -47 14 4 91 36 171 71 80 36 147 65
149 65 2 0 4 -135 4 -300 0 -165 -2 -300 -4 -300 -2 0 -69 29 -149 65 -80 35
-157 67 -171 71 -35 9 -88 -11 -122 -47 -28 -29 -29 -35 -34 -147 -6 -131 -17
-159 -75 -186 -28 -13 -79 -16 -325 -16 l-292 0 -29 -29 c-16 -16 -29 -39 -29
-51 0 -12 13 -35 29 -51 l29 -29 299 0 c363 0 377 3 464 89 66 67 89 125 89
228 0 35 2 63 4 63 2 0 90 -38 195 -85 105 -47 198 -85 207 -85 8 0 29 13 45
29 l29 29 0 452 0 452 -29 29 c-16 16 -37 29 -45 29 -9 0 -102 -38 -207 -85
-105 -47 -193 -85 -195 -85 -2 0 -4 28 -4 63 0 103 -23 161 -89 228 -92 92
-71 89 -715 88 -461 0 -559 -3 -600 -15z"/>
<path d="M1016 1659 c-26 -20 -26 -21 -26 -160 l0 -139 -134 0 c-120 0 -136
-2 -160 -21 -37 -29 -37 -89 0 -118 24 -19 40 -21 160 -21 l134 0 0 -139 c0
-139 0 -140 26 -160 37 -29 70 -26 105 8 l29 29 0 131 0 131 131 0 131 0 29
29 c37 37 37 65 0 102 l-29 29 -131 0 -131 0 0 131 0 131 -29 29 c-35 34 -68
37 -105 8z"/>
</g>
</svg>
