<?xml version="1.0" standalone="no"?>
<!DOCTYPE svg PUBLIC "-//W3C//DTD SVG 20010904//EN"
 "http://www.w3.org/TR/2001/REC-SVG-20010904/DTD/svg10.dtd">
<svg version="1.0" xmlns="http://www.w3.org/2000/svg"
 width="225.000000pt" height="225.000000pt" viewBox="0 0 225.000000 225.000000"
 preserveAspectRatio="xMidYMid meet">

<g transform="translate(0.000000,225.000000) scale(0.100000,-0.100000)"
fill="#000000" stroke="none">
<path d="M997 2140 c-130 -41 -237 -149 -277 -277 -18 -60 -20 -93 -20 -397 0
-362 5 -405 57 -494 94 -160 294 -245 468 -198 113 30 214 104 268 197 52 88
57 134 57 495 0 303 -2 338 -20 396 -68 221 -313 349 -533 278z"/>
<path d="M460 1132 c0 -69 24 -155 72 -252 33 -67 58 -102 122 -165 97 -97
186 -147 319 -179 l92 -23 3 -211 2 -212 60 0 60 0 0 213 0 212 80 18 c127 29
231 87 325 181 115 116 177 243 194 395 l7 71 -58 0 c-52 0 -58 -2 -62 -22 -2
-13 -9 -50 -15 -83 -35 -193 -191 -360 -390 -419 -67 -20 -216 -21 -286 -2
-95 25 -167 68 -245 146 -87 86 -131 166 -150 270 -7 36 -14 75 -16 88 -4 20
-10 22 -59 22 l-55 0 0 -48z"/>
</g>
</svg>
