<?xml version="1.0" standalone="no"?>
<!DOCTYPE svg PUBLIC "-//W3C//DTD SVG 20010904//EN"
 "http://www.w3.org/TR/2001/REC-SVG-20010904/DTD/svg10.dtd">
<svg version="1.0" xmlns="http://www.w3.org/2000/svg"
 width="1280.000000pt" height="285.000000pt" viewBox="0 0 1280.000000 285.000000"
 preserveAspectRatio="xMidYMid meet">

<g transform="translate(0.000000,285.000000) scale(0.100000,-0.100000)"
fill="#000000" stroke="none">
<path d="M1555 2843 c-451 -9 -895 -38 -1055 -69 -166 -31 -304 -133 -374
-275 -65 -132 -97 -358 -118 -812 -24 -548 29 -1174 115 -1344 53 -104 163
-204 267 -244 116 -44 365 -71 846 -90 345 -14 1625 -7 1869 10 241 17 443 39
510 56 211 54 345 200 395 430 91 427 91 1403 -1 1835 -29 133 -68 210 -148
289 -105 105 -189 138 -421 165 -352 42 -1189 64 -1885 49z m611 -1115 c288
-167 524 -305 524 -308 -1 -4 -1029 -600 -1051 -608 -5 -2 -9 271 -9 607 0
336 3 611 6 611 3 0 241 -136 530 -302z"/>
<path d="M10430 1470 l0 -1270 164 0 164 0 17 73 c25 103 26 104 62 53 66 -94
178 -148 308 -150 228 -3 346 142 390 481 18 137 21 713 4 874 -20 202 -58
322 -127 401 -53 59 -120 83 -237 83 -90 0 -106 -3 -159 -29 -58 -28 -137 -99
-183 -161 l-22 -30 0 473 -1 472 -190 0 -190 0 0 -1270z m642 233 c39 -37 57
-104 69 -263 13 -161 6 -697 -10 -788 -24 -130 -74 -192 -155 -192 -50 0 -120
33 -146 70 -19 27 -20 43 -20 532 l0 503 24 50 c54 115 166 157 238 88z"/>
<path d="M4494 2623 c4 -16 106 -385 227 -821 l219 -792 0 -405 0 -405 200 0
200 0 0 397 0 397 224 800 c124 441 228 813 232 829 l6 27 -198 -2 -199 -3
-52 -235 c-73 -327 -179 -830 -193 -918 -7 -41 -15 -70 -19 -65 -4 4 -18 67
-30 138 -12 72 -68 344 -124 605 l-102 475 -199 3 -198 2 6 -27z"/>
<path d="M8020 2485 l0 -165 200 0 200 0 0 -1060 0 -1060 195 0 195 0 0 1060
0 1060 200 0 200 0 0 165 0 165 -595 0 -595 0 0 -165z"/>
<path d="M6104 2005 c-139 -30 -249 -116 -309 -240 -68 -141 -95 -331 -95
-680 0 -500 59 -719 222 -830 78 -52 163 -76 298 -82 320 -14 496 112 560 403
58 263 49 878 -16 1094 -56 187 -170 299 -341 335 -84 18 -237 18 -319 0z
m223 -281 c13 -8 31 -31 42 -52 37 -72 43 -173 39 -632 -5 -481 -8 -507 -68
-565 -26 -25 -40 -30 -80 -30 -40 0 -54 5 -80 30 -62 60 -65 86 -65 615 0 422
2 481 17 531 10 31 27 68 38 82 36 45 104 54 157 21z"/>
<path d="M12124 2005 c-240 -52 -352 -226 -385 -596 -15 -176 -6 -641 15 -764
44 -258 137 -388 319 -448 76 -25 280 -29 367 -8 171 42 291 155 328 311 15
65 25 176 18 204 -6 23 -9 24 -133 30 -71 4 -146 9 -169 12 l-40 5 -11 -96
c-18 -153 -59 -209 -152 -209 -52 0 -91 19 -116 57 -22 34 -33 112 -40 295
l-6 162 340 0 341 0 0 208 c0 586 -83 779 -359 838 -82 17 -236 17 -317 -1z
m227 -281 c12 -10 27 -31 35 -45 20 -39 34 -177 34 -336 l0 -143 -151 0 -151
0 7 188 c9 250 28 326 90 353 32 14 113 4 136 -17z"/>
<path d="M7030 1258 c0 -777 2 -807 48 -911 28 -64 84 -121 145 -148 74 -33
226 -33 309 0 68 26 152 99 198 172 18 27 34 48 36 46 2 -1 11 -51 20 -110
l17 -107 158 0 159 0 0 895 0 895 -200 0 -200 0 0 -705 c0 -760 2 -732 -52
-782 -30 -28 -89 -53 -127 -53 -43 0 -86 41 -100 94 -8 31 -11 261 -11 745 l0
701 -200 0 -200 0 0 -732z"/>
<path d="M9094 1976 c-3 -7 -4 -344 -2 -747 4 -661 6 -740 21 -794 38 -129 89
-198 176 -238 37 -17 66 -21 151 -21 97 -1 110 1 170 30 82 39 128 79 180 156
44 66 43 66 60 -37 6 -38 13 -82 16 -98 l6 -27 154 0 154 0 0 895 0 895 -200
0 -200 0 0 -720 0 -719 -34 -35 c-44 -44 -114 -71 -160 -62 -50 10 -74 49 -86
138 -5 40 -10 371 -10 736 l0 662 -195 0 c-157 0 -197 -3 -201 -14z"/>
</g>
</svg>
